<svg xmlns="http://www.w3.org/2000/svg" viewBox="0 0 32 32"><g transform="translate(0 -1020.362)"><path fill="#BAD7A8" d="m 12.420666,1043.6411 c -4.102211,1.0993 -8.3692979,-1.5243 -8.3692979,-1.5243 0,0 1.90285,-3.5171 5.2340081,-5.0505 l 0.071774,-0.017 c -3.5472713,-4.2747 -3.640217,-11.0216 -3.640217,-11.0216 0,0 6.7309368,0.093 11.0063168,3.6275 0.758509,0.6702 -0.196253,0.3398 0.02473,-0.043 1.529561,-3.3412 5.057957,-5.2502 5.057957,-5.2502 0,0 2.623591,4.2671 1.524369,8.3693 l 0.173442,-0.897 c 2.266666,-1.1192 4.548808,-1.2257 4.548808,-1.2257 0,0 -0.175136,4.184 -2.863749,6.8727 -1.675772,1.6757 -3.932485,2.375 -5.394922,2.6641 l 0.03907,-0.039 c -0.289441,1.4625 -0.988954,3.7173 -2.663549,5.3919 -2.688613,2.6886 -6.872621,2.8637 -6.872621,2.8637 0,0 0.09767,-2.3117 1.173925,-4.5466 z"/><path d="m 14.871094,1034.6816 a 0.50005,0.50005 0 0 0 -0.34961,0.8594 l 10.011719,10.0098 a 0.50005,0.50005 0 1 0 0.707031,-0.707 L 15.230469,1034.834 a 0.50005,0.50005 0 0 0 -0.359375,-0.1524 z" style="line-height:normal;text-indent:0;text-align:start;text-decoration-line:none;text-decoration-style:solid;text-decoration-color:#000;text-transform:none;block-progression:tb;white-space:normal;isolation:auto;mix-blend-mode:normal;solid-color:#000;solid-opacity:1" fill="#3c3b41" fill-rule="evenodd" color="#000" enable-background="accumulate" font-family="sans-serif" font-weight="400" overflow="visible"/><path d="m 19.632812,1033.1348 a 0.50005,0.50005 0 0 0 -0.505859,0.4414 l -0.736328,5.5547 a 0.50051745,0.50051745 0 0 0 0.992187,0.1328 l 0.736329,-5.5567 a 0.50005,0.50005 0 0 0 -0.486329,-0.5722 z" style="line-height:normal;text-indent:0;text-align:start;text-decoration-line:none;text-decoration-style:solid;text-decoration-color:#000;text-transform:none;block-progression:tb;white-space:normal;isolation:auto;mix-blend-mode:normal;solid-color:#000;solid-opacity:1" fill="#3c3b41" fill-rule="evenodd" color="#000" enable-background="accumulate" font-family="sans-serif" font-weight="400" overflow="visible"/><path d="m 18.855469,1038.6973 a 0.50005,0.50005 0 0 0 -0.03516,0 l -5.55664,0.7363 a 0.50052469,0.50052469 0 1 0 0.132812,0.9922 l 5.554688,-0.7363 a 0.50034345,0.50034345 0 1 0 -0.0957,-0.9961 z" style="line-height:normal;text-indent:0;text-align:start;text-decoration-line:none;text-decoration-style:solid;text-decoration-color:#000;text-transform:none;block-progression:tb;white-space:normal;isolation:auto;mix-blend-mode:normal;solid-color:#000;solid-opacity:1" fill="#3c3b41" fill-rule="evenodd" color="#000" enable-background="accumulate" font-family="sans-serif" font-weight="400" overflow="visible"/></g></svg>